<?xml version="1.0" standalone="no"?>
<!DOCTYPE svg PUBLIC "-//W3C//DTD SVG 20010904//EN"
 "http://www.w3.org/TR/2001/REC-SVG-20010904/DTD/svg10.dtd">
<svg version="1.0" xmlns="http://www.w3.org/2000/svg"
 width="256.000000pt" height="256.000000pt" viewBox="0 0 256.000000 256.000000"
 preserveAspectRatio="xMidYMid meet">
<metadata>
Created by potrace 1.14, written by Peter Selinger 2001-2017
</metadata>
<g transform="translate(0.000000,256.000000) scale(0.100000,-0.100000)"
fill="#000000" stroke="none">
<path d="M1534 2436 c-34 -12 -104 -58 -104 -67 0 -8 -112 -54 -155 -65 -16
-4 -37 -9 -45 -11 -8 -2 -34 -5 -56 -7 -23 -2 -46 -6 -51 -9 -5 -3 -15 -2 -23
3 -7 4 -19 6 -26 3 -15 -6 -84 26 -84 39 0 5 -25 21 -55 34 -134 62 -290 12
-355 -113 -24 -47 -30 -72 -34 -157 -4 -60 -28 -149 -48 -173 -6 -7 -8 -13 -4
-13 4 0 -3 -18 -14 -40 -11 -22 -25 -40 -31 -40 -6 0 -8 -4 -5 -9 3 -5 -1 -14
-9 -21 -8 -7 -15 -19 -15 -27 0 -8 -4 -11 -10 -8 -5 3 -10 -2 -10 -11 0 -10
-3 -14 -7 -11 -3 4 -12 -1 -18 -10 -7 -9 -26 -18 -42 -19 -48 -4 -129 -43
-160 -77 -102 -113 -100 -276 5 -382 25 -26 57 -54 69 -62 13 -9 23 -21 23
-28 0 -7 4 -15 8 -17 23 -9 95 -163 107 -229 3 -13 7 -36 11 -52 4 -18 -1 -38
-14 -60 -62 -103 -45 -243 41 -327 60 -60 105 -75 202 -71 179 6 290 3 290 -9
0 -1 11 -3 23 -6 13 -2 54 -17 90 -32 62 -25 69 -32 95 -82 57 -111 165 -179
266 -167 76 9 141 31 141 48 0 5 7 9 16 9 8 0 13 4 9 9 -3 6 4 15 15 21 11 6
34 39 51 73 18 34 34 64 38 67 3 3 21 22 39 43 17 21 32 35 32 32 0 -3 11 5
24 19 13 15 27 26 31 26 5 0 16 6 24 14 25 22 110 66 134 70 12 2 30 0 39 -5
29 -15 140 -12 186 4 143 54 216 222 154 360 -11 26 -21 50 -22 52 0 3 -7 22
-14 43 -18 49 -17 230 0 296 9 35 24 59 46 79 66 56 79 71 101 116 16 35 21
64 20 119 0 39 -6 78 -12 85 -6 8 -8 17 -4 20 3 4 1 7 -6 7 -7 0 -10 4 -7 8 8
14 -82 101 -121 117 -21 9 -59 21 -84 26 -25 6 -70 26 -98 45 -29 18 -55 34
-57 34 -2 0 -12 8 -22 18 -9 9 -28 26 -42 37 -14 11 -43 42 -64 68 -37 45 -39
52 -41 121 -1 59 -7 82 -30 125 -32 58 -90 109 -145 128 -43 15 -144 15 -186
-1z m-186 -757 c12 -7 22 -17 22 -22 0 -4 5 -5 10 -2 6 3 10 1 10 -5 0 -6 5
-8 10 -5 6 3 10 1 10 -5 0 -6 4 -9 9 -5 5 3 12 1 16 -4 3 -5 13 -9 23 -9 9 0
29 -2 44 -5 15 -3 31 -1 34 5 4 7 9 6 14 -3 6 -9 13 -10 22 -3 7 6 28 11 46
13 31 2 32 1 22 -23 -5 -14 -6 -26 -2 -26 4 0 1 -4 -6 -8 -15 -10 -22 -96 -10
-137 5 -16 10 -34 12 -40 9 -41 73 -118 119 -141 24 -13 38 -36 20 -33 -5 1
-10 1 -13 -1 -3 -1 -15 -3 -28 -6 -25 -5 -100 -49 -122 -73 -30 -32 -51 -73
-46 -87 3 -8 2 -13 -3 -9 -10 6 -21 -34 -26 -96 -2 -22 -5 -43 -8 -45 -2 -2
-31 8 -64 24 -79 37 -170 37 -255 -1 -48 -22 -59 -23 -69 -11 -6 7 -15 12 -19
9 -5 -3 -13 10 -19 28 -19 54 -36 87 -43 87 -5 0 -8 7 -8 15 0 8 -7 15 -16 15
-8 0 -13 4 -10 9 3 5 -2 11 -12 15 -9 3 -33 15 -52 27 -36 22 -61 29 -117 31
-39 2 -39 2 -13 28 11 11 20 17 20 13 0 -3 9 2 20 12 11 10 20 23 20 28 0 5 7
15 15 21 8 6 17 21 20 34 3 12 8 32 11 45 3 12 6 30 6 40 -1 9 4 17 10 17 6 0
4 8 -5 18 -13 14 -14 21 -5 30 7 7 8 12 2 12 -5 0 -11 14 -12 32 -2 18 -6 35
-10 38 -13 9 -13 31 0 43 7 7 31 13 53 14 58 1 95 6 95 14 0 3 7 6 15 7 8 1
22 3 30 4 8 1 12 5 9 9 -2 4 5 10 15 14 11 3 31 19 44 35 14 16 28 26 31 23 3
-4 6 -1 6 5 0 15 100 9 128 -9z"/>
</g>
</svg>
