<svg version="1.1" id="Layer_1" xmlns="http://www.w3.org/2000/svg" xmlns:xlink="http://www.w3.org/1999/xlink" x="0px" y="0px"
	 width="100%" viewBox="0 0 2250 605" enable-background="new 0 0 2250 605" xml:space="preserve">
<path fill="#FFFFFF" opacity="1.000000" stroke="none" 
	d="
M2156.000000,606.000000 
	C1437.396118,606.000000 719.292175,606.000000 1.094131,606.000000 
	C1.094131,404.413757 1.094131,202.827438 1.094131,1.120563 
	C751.000000,1.120563 1501.000000,1.120563 2250.995361,1.120563 
	C2250.995361,202.708145 2250.995361,404.354065 2250.993164,606.000000 
	C2219.493896,606.000000 2187.996826,606.000000 2156.000000,606.000000 
M558.110718,413.153748 
	C558.110718,413.153748 558.324158,413.297241 558.934631,413.061859 
	C566.802551,403.237732 576.992615,396.451782 588.875977,390.794891 
	C590.798035,391.214966 592.728943,391.598450 594.640686,392.061188 
	C604.889221,394.541809 614.069946,392.641418 621.688110,385.129730 
	C629.425903,377.500122 631.864929,368.216156 628.933716,357.813324 
	C627.692932,353.409698 625.466309,349.283844 623.796204,344.204987 
	C621.292603,332.378326 622.464050,320.685577 625.523071,308.532471 
	C627.062073,307.315521 628.591492,306.086273 630.141602,304.883728 
	C639.408630,297.694641 643.318970,288.264008 641.016113,276.776123 
	C638.795959,265.701050 631.851257,258.570892 620.973572,255.440643 
	C618.436523,254.710556 615.781494,254.390305 612.756348,253.340836 
	C601.697876,248.080048 592.926758,239.996613 584.851807,230.135986 
	C581.114563,227.623444 584.179077,224.448944 584.091187,221.610718 
	C583.740601,210.287872 578.725403,201.545456 568.700562,196.631104 
	C558.563904,191.661911 548.350220,192.663315 539.076660,199.583282 
	C536.688110,201.365616 534.384949,203.262283 531.280029,205.062515 
	C520.038330,210.187668 508.111694,211.638382 495.320038,211.245255 
	C494.183777,210.303360 493.004028,209.408844 491.918121,208.412079 
	C483.090485,200.309219 471.109985,198.366516 460.413788,203.724121 
	C447.911285,209.986465 443.896912,220.731857 444.865906,234.735184 
	C444.200989,237.282272 443.620453,239.854996 442.856415,242.371994 
	C439.694092,252.789398 433.665741,261.576965 426.233887,270.146698 
	C425.255493,270.325928 424.283478,270.559052 423.297699,270.676239 
	C411.335693,272.098633 403.231567,278.671112 399.680115,289.952301 
	C396.194214,301.025238 398.953583,310.981689 407.640625,318.985962 
	C409.940521,321.105042 412.409363,323.040741 415.022675,325.724274 
	C422.646942,336.694611 428.797363,348.245178 428.840759,362.546051 
	C422.152191,373.869965 422.444366,385.667664 429.649170,395.188385 
	C437.092896,405.024811 447.401794,408.016907 460.680481,404.915466 
	C464.765137,403.961426 469.420349,403.635986 473.442078,404.590759 
	C482.886292,406.832764 492.105743,410.021576 501.719238,413.437714 
	C502.394165,414.551544 503.238190,415.597382 503.717926,416.789734 
	C508.757477,429.315704 518.681091,436.222504 531.229858,435.860504 
	C543.190674,435.515442 552.667236,428.080566 557.393005,415.375885 
	C557.712524,414.665314 558.031982,413.954712 558.110718,413.153748 
M1305.673096,335.892273 
	C1308.939087,340.918091 1312.167236,345.968964 1315.483276,350.961578 
	C1318.023193,354.785583 1323.076172,356.783630 1327.363647,355.003021 
	C1331.030029,353.480377 1333.029541,350.603058 1332.969727,346.053284 
	C1332.733276,328.062714 1332.879883,310.067261 1332.859253,292.073639 
	C1332.852539,286.125427 1329.768311,282.755310 1324.426880,282.748322 
	C1318.936035,282.741150 1315.979980,285.913788 1315.965210,291.880676 
	C1315.945435,299.877777 1315.968018,307.875031 1315.927002,315.871979 
	C1315.921997,316.853424 1315.636841,317.833466 1315.350708,319.640411 
	C1313.878052,317.505676 1312.921875,316.161224 1312.008301,314.788513 
	C1306.013062,305.779785 1300.057617,296.744385 1294.024902,287.760834 
	C1290.973511,283.216949 1286.311890,281.088837 1282.070312,282.991394 
	C1278.076904,284.782654 1276.173218,288.041382 1276.258057,292.944336 
	C1276.560425,310.432892 1276.392212,327.929871 1276.374146,345.423645 
	C1276.367432,351.916473 1279.166504,355.232880 1284.776367,355.248047 
	C1290.531738,355.263641 1293.256592,352.166321 1293.247314,345.665558 
	C1293.234985,337.072815 1293.244263,328.480103 1293.244263,319.887360 
	C1293.698608,319.724457 1294.153076,319.561523 1294.607422,319.398590 
	C1298.164185,324.694427 1301.720947,329.990265 1305.673096,335.892273 
M1846.319458,314.866882 
	C1854.066528,300.216400 1845.134399,283.871826 1828.673950,282.980499 
	C1821.036621,282.566925 1813.360352,282.846741 1805.701660,282.862061 
	C1800.129883,282.873230 1796.993042,286.091187 1796.986938,291.787598 
	C1796.967041,310.103333 1796.958252,328.419098 1796.976929,346.734833 
	C1796.982422,352.210754 1799.988281,355.140991 1805.575439,355.162964 
	C1812.901611,355.191803 1820.228027,355.161713 1827.554321,355.165039 
	C1836.175049,355.168976 1843.512451,352.236298 1847.466675,344.309937 
	C1851.488037,336.248962 1851.365112,327.988403 1846.059326,320.145325 
	C1845.320312,319.053162 1845.887939,317.077148 1846.319458,314.866882 
M740.018738,322.425110 
	C746.359497,331.993591 752.735657,341.538910 759.025269,351.140961 
	C761.895691,355.523071 766.349792,356.030396 770.521606,354.868622 
	C774.316528,353.811768 776.191528,350.625427 776.129456,346.060791 
	C775.882629,327.913452 776.065125,309.760529 775.986023,291.610107 
	C775.978577,289.894165 775.646484,287.946747 774.787659,286.512451 
	C772.525146,282.734192 768.568054,281.609589 764.859619,283.065338 
	C761.340759,284.446686 758.898743,287.343964 759.052551,291.956726 
	C759.347961,300.814789 759.138550,309.689667 759.138550,318.557587 
	C757.122925,317.316833 756.073059,315.894226 755.094788,314.424011 
	C749.010620,305.280518 742.906494,296.149933 736.884766,286.965363 
	C734.042297,282.629974 729.668030,281.909607 725.451050,283.124084 
	C721.663513,284.214966 719.680725,287.382904 719.733093,291.927582 
	C719.943909,310.242462 719.805847,328.561157 719.846008,346.878326 
	C719.857544,352.136383 722.942627,355.146912 728.111633,355.162079 
	C733.629761,355.178223 736.811096,352.152588 736.846252,346.747620 
	C736.889587,340.087036 736.864014,333.426056 736.867371,326.765228 
	C736.868652,324.292694 736.867554,321.820190 736.867554,319.347656 
	C737.235107,319.340790 737.602661,319.333954 737.970215,319.327087 
	C738.524780,320.146576 739.079346,320.966064 740.018738,322.425110 
M901.063843,353.286438 
	C904.158630,353.789093 907.544434,355.305023 910.270142,354.522308 
	C913.265686,353.662079 915.334290,350.730530 915.122559,346.726227 
	C914.799683,340.620789 915.037903,334.485687 915.037903,328.452393 
	C919.731995,326.951172 922.385803,327.962677 924.297424,332.502411 
	C926.996033,338.911011 930.491699,344.995361 933.826477,351.120422 
	C935.828796,354.798218 943.911865,356.904846 947.128235,354.823181 
	C950.310242,352.763702 951.221008,347.543732 949.125488,343.470490 
	C945.965637,337.328186 942.817383,331.179901 939.710388,325.124146 
	C940.569763,324.409760 940.939148,324.082611 941.328857,323.781616 
	C949.757568,317.271667 952.967773,307.036743 949.679443,297.146545 
	C946.852112,288.642914 938.654907,283.075653 928.331055,282.864929 
	C921.012878,282.715576 913.689270,282.720642 906.369690,282.800903 
	C901.270813,282.856781 898.173645,286.075836 898.163452,291.188477 
	C898.126648,309.657776 898.059937,328.127899 898.229858,346.595612 
	C898.248901,348.665680 899.704651,350.722565 901.063843,353.286438 
M842.391968,323.499939 
	C842.404968,331.323822 842.375854,339.148071 842.445862,346.971466 
	C842.492065,352.136017 845.599487,355.197205 850.810974,355.220367 
	C861.131897,355.266266 871.453125,355.236542 881.774231,355.240326 
	C888.007629,355.242615 891.252441,352.455933 891.254395,347.092682 
	C891.256226,342.065216 887.719482,339.131866 881.562378,339.113464 
	C874.278625,339.091705 866.994751,339.108368 859.587952,339.108368 
	C859.587952,334.796478 859.587952,331.063965 859.587952,326.885620 
	C866.061951,326.885620 872.189148,326.923126 878.315613,326.873810 
	C883.266663,326.833954 886.545288,323.671936 886.597107,319.016754 
	C886.652283,314.058105 883.371277,310.809387 878.228088,310.765900 
	C875.231873,310.740540 872.235229,310.762177 869.238770,310.761078 
	C858.634827,310.757172 858.631714,310.756653 859.483582,300.159729 
	C859.506104,299.878754 859.782349,299.618164 860.209961,298.887024 
	C867.573669,298.887024 875.202209,298.908417 882.830627,298.879761 
	C888.209778,298.859558 891.238098,295.904083 891.228394,290.775940 
	C891.218994,285.812225 888.023254,282.742096 882.715332,282.729797 
	C872.227905,282.705505 861.740234,282.724243 851.252808,282.751190 
	C845.490234,282.766022 842.416687,285.799377 842.399780,291.536621 
	C842.369446,301.857635 842.391968,312.178833 842.391968,323.499939 
M1216.078369,309.700470 
	C1216.373657,318.333221 1215.993896,327.055664 1217.126343,335.577179 
	C1218.735107,347.683685 1230.324951,356.096069 1243.569336,355.886597 
	C1256.397949,355.683716 1267.719360,346.836365 1268.952148,334.904236 
	C1269.922607,325.510986 1269.803955,315.968292 1269.598999,306.504303 
	C1269.475464,300.803864 1267.659546,295.371826 1263.509277,291.055664 
	C1255.151733,282.364227 1244.977905,279.929626 1233.804688,283.684448 
	C1222.110107,287.614502 1216.416870,296.450226 1216.078369,309.700470 
M1783.749390,347.222229 
	C1788.280762,342.134430 1790.275146,336.195435 1790.207764,329.377350 
	C1790.082520,316.720490 1790.178711,304.061462 1790.172485,291.403351 
	C1790.169678,285.898804 1786.981812,282.381409 1782.025391,282.379089 
	C1776.795410,282.376648 1773.419067,285.986603 1773.411621,291.659485 
	C1773.396118,303.651367 1773.480957,315.644104 1773.347656,327.634491 
	C1773.320801,330.056396 1772.984985,332.696228 1771.960571,334.838043 
	C1770.039185,338.854980 1765.190796,340.365540 1760.262451,338.999084 
	C1755.238159,337.606049 1753.622314,333.763428 1753.595459,329.084442 
	C1753.522949,316.426880 1753.621216,303.768402 1753.576416,291.110565 
	C1753.558228,285.979187 1749.875854,282.358521 1744.928833,282.379333 
	C1740.084717,282.399719 1736.435547,286.120636 1736.418213,291.253021 
	C1736.376831,303.411316 1736.322876,315.570984 1736.476929,327.727539 
	C1736.518677,331.020142 1736.833862,334.442200 1737.793457,337.568542 
	C1743.676514,356.735138 1768.028809,362.114410 1783.749390,347.222229 
M1050.461548,298.860779 
	C1052.626343,298.860901 1054.791382,298.878113 1056.956055,298.857758 
	C1062.527100,298.805328 1065.602417,295.975891 1065.609497,290.918457 
	C1065.616455,285.992371 1062.321655,282.849243 1057.030762,282.836243 
	C1046.540039,282.810486 1036.049194,282.815826 1025.558472,282.833618 
	C1019.634888,282.843689 1016.853638,285.632355 1016.843201,291.636993 
	C1016.811401,309.953979 1016.808167,328.271057 1016.808777,346.588074 
	C1016.808960,352.337555 1019.550720,355.139923 1025.213989,355.151672 
	C1035.538208,355.173065 1045.862549,355.151886 1056.186768,355.154602 
	C1062.095947,355.156128 1065.534546,352.350433 1065.625488,347.436951 
	C1065.717896,342.449341 1061.977051,339.140198 1056.141357,339.119232 
	C1048.704834,339.092499 1041.267944,339.112732 1033.964966,339.112732 
	C1033.964966,334.669739 1033.964966,330.931854 1033.964966,326.871918 
	C1040.310547,326.871918 1046.282715,326.893066 1052.254639,326.865570 
	C1057.529175,326.841309 1060.857910,323.734161 1060.890991,318.873108 
	C1060.923950,314.035278 1057.591797,310.860474 1052.386475,310.837830 
	C1046.270874,310.811249 1040.154907,310.831635 1033.846680,310.831635 
	C1033.846680,306.605469 1033.846680,303.019867 1033.846680,298.860657 
	C1039.233154,298.860657 1044.354492,298.860657 1050.461548,298.860779 
M1005.604065,294.410736 
	C1006.171204,291.178497 1004.662170,289.098663 1002.028320,287.416412 
	C994.032043,282.309143 985.386963,280.940460 976.219238,282.915131 
	C964.921082,285.348724 957.882202,294.163330 958.098083,305.319458 
	C958.311401,316.345795 965.420654,324.015167 977.287781,326.034241 
	C980.563110,326.591492 983.817810,327.305969 987.111206,327.710602 
	C990.469788,328.123230 993.576721,329.460358 992.649963,333.086700 
	C992.055115,335.414307 989.406372,338.216492 987.107117,338.908813 
	C981.685059,340.541504 976.336548,339.526306 971.638672,335.765106 
	C967.612854,332.541840 962.138489,333.582733 959.010010,337.793518 
	C956.583984,341.058899 957.516113,346.359192 961.329346,349.079590 
	C972.921753,357.349670 985.397095,358.232574 998.137390,352.351929 
	C1006.589600,348.450531 1010.877014,339.548676 1009.653015,330.444061 
	C1008.305847,320.422974 1002.603210,314.089203 992.773376,311.957947 
	C988.719055,311.078949 984.569031,310.644379 980.509155,309.786926 
	C977.651733,309.183350 974.317505,307.881042 975.275391,304.465271 
	C975.939514,302.097015 978.713257,298.805115 980.741089,298.659210 
	C984.615295,298.380493 988.959412,299.364014 992.513306,301.066193 
	C998.716248,304.037109 1004.397705,301.855743 1005.604065,294.410736 
M1361.092041,341.159607 
	C1369.077026,341.747040 1379.199585,337.344818 1381.312622,350.935669 
	C1381.922485,354.857849 1389.644775,356.733856 1393.439087,354.830963 
	C1396.582397,353.254547 1398.213135,348.381317 1396.830688,344.599274 
	C1390.092041,326.162750 1383.288086,307.749786 1376.639038,289.281067 
	C1374.992310,284.706818 1371.887329,282.644196 1367.236206,282.750458 
	C1362.904541,282.849426 1360.364258,285.197418 1358.884277,289.279419 
	C1352.137695,307.887665 1345.229126,326.437225 1338.404053,345.017151 
	C1336.481079,350.252197 1339.780151,355.097687 1345.260132,355.184998 
	C1351.317505,355.281433 1353.133545,353.765717 1355.628296,347.309143 
	C1356.547363,344.930969 1356.080200,341.256592 1361.092041,341.159607 
M1085.965454,285.354950 
	C1077.717163,289.922485 1073.151489,296.987793 1072.777344,306.323853 
	C1072.431396,314.957733 1072.215942,323.666809 1072.945801,332.257568 
	C1074.072021,345.511230 1083.546875,354.522614 1096.571655,355.842072 
	C1109.681152,357.170166 1120.847778,349.640350 1125.191650,337.287933 
	C1126.817139,332.665649 1124.503540,329.732971 1121.635132,328.100250 
	C1119.406250,326.831451 1115.537354,327.293121 1112.890137,328.291840 
	C1110.945312,329.025543 1109.508179,331.713531 1108.355469,333.811218 
	C1105.971191,338.149872 1102.482910,340.095032 1097.668823,339.344177 
	C1092.942749,338.607086 1090.116333,335.608582 1089.977905,330.883850 
	C1089.739502,322.753784 1089.702148,314.600952 1090.045532,306.477325 
	C1090.235962,301.974945 1093.287476,299.293427 1097.702026,298.496460 
	C1101.918457,297.735291 1105.212646,299.330292 1107.431641,302.982391 
	C1108.117310,304.111053 1108.462036,305.444366 1109.126709,306.588806 
	C1111.229370,310.209015 1117.370239,312.368683 1120.905273,310.801300 
	C1124.457642,309.226227 1126.257080,304.168213 1124.798340,299.858429 
	C1119.569824,284.411652 1103.359863,278.108276 1085.965454,285.354950 
M1621.494263,303.102997 
	C1621.383057,313.068329 1620.531250,323.094604 1621.345093,332.983826 
	C1622.402588,345.835236 1632.723022,354.896179 1645.651367,355.875763 
	C1658.857788,356.876373 1670.152710,349.170593 1673.558350,336.560059 
	C1674.010132,334.887207 1673.772949,332.478607 1672.846680,331.076630 
	C1668.410522,324.362274 1660.707397,325.440674 1656.949829,333.114349 
	C1654.421021,338.278625 1650.960083,340.174774 1645.765747,339.242004 
	C1640.955078,338.378082 1638.310547,335.444458 1638.100464,329.669159 
	C1637.834473,322.356384 1637.915771,315.021881 1638.123413,307.704559 
	C1638.240356,303.584991 1640.210938,300.417755 1644.342407,298.966034 
	C1649.921997,297.005463 1654.134399,299.108551 1657.028809,305.310730 
	C1659.185425,309.932098 1664.861572,313.061371 1668.778931,310.662811 
	C1671.238525,309.156799 1674.012817,305.114166 1673.675781,302.609344 
	C1672.056152,290.578491 1660.960693,282.213745 1647.878540,282.125061 
	C1634.922852,282.037231 1624.190796,290.326294 1621.494263,303.102997 
M1571.450562,353.937500 
	C1574.319580,351.983765 1575.339722,349.349457 1575.100586,345.845917 
	C1574.806641,341.537537 1574.599854,337.141785 1575.131836,332.880768 
	C1575.691162,328.401520 1576.552734,323.763214 1578.369873,319.678192 
	C1582.350830,310.728210 1587.067261,302.107330 1591.355835,293.290070 
	C1592.006714,291.951721 1592.711792,289.830475 1592.113892,288.853149 
	C1590.618164,286.408386 1590.377930,282.645081 1585.946167,282.680786 
	C1581.305908,282.718201 1577.461182,283.434509 1575.282959,288.159180 
	C1572.656860,293.855164 1569.791626,299.440948 1566.669312,305.809998 
	C1563.335571,299.124664 1560.506470,293.161377 1557.409912,287.340424 
	C1555.242188,283.265900 1548.380249,281.154663 1544.799438,283.168793 
	C1541.429688,285.064148 1540.340576,290.498444 1542.508057,294.812195 
	C1544.299316,298.377045 1545.967896,302.019012 1547.994019,305.447571 
	C1555.220337,317.675903 1559.943359,330.336060 1558.306396,345.048248 
	C1557.332275,353.803284 1562.135986,356.869415 1571.450562,353.937500 
M1167.611328,309.514130 
	C1167.611328,306.091125 1167.611328,302.668121 1167.611328,298.853729 
	C1171.322266,298.853729 1174.292847,298.891937 1177.261963,298.845428 
	C1182.723999,298.759888 1185.614868,295.863922 1185.572998,290.588379 
	C1185.537231,286.072723 1182.117432,282.784515 1177.253296,282.767151 
	C1165.434082,282.724976 1153.614380,282.727478 1141.795166,282.761292 
	C1135.925659,282.778107 1132.782471,285.623169 1132.748901,290.797302 
	C1132.716064,295.862488 1136.002808,298.838928 1141.685791,298.869629 
	C1144.598877,298.885376 1147.512207,298.872375 1150.746338,298.872375 
	C1150.746338,315.321259 1150.736084,330.956665 1150.751709,346.592041 
	C1150.757324,352.186890 1153.808716,355.281799 1159.209351,355.256683 
	C1164.543701,355.231873 1167.540283,352.127625 1167.560547,346.468842 
	C1167.603760,334.483307 1167.597168,322.497589 1167.611328,309.514130 
M1516.844604,304.596588 
	C1516.844604,302.830170 1516.844604,301.063751 1516.844604,298.855743 
	C1520.487793,298.855743 1523.456543,298.892151 1526.424194,298.847565 
	C1531.407959,298.772675 1534.809570,295.653687 1534.880371,291.157166 
	C1534.957642,286.245117 1531.622559,282.848755 1526.548340,282.834473 
	C1514.549316,282.800690 1502.550171,282.812042 1490.551025,282.841400 
	C1485.274170,282.854309 1481.966064,285.964233 1481.957764,290.807739 
	C1481.948853,295.866943 1485.037598,298.811798 1490.445068,298.859589 
	C1493.538330,298.886963 1496.632080,298.864563 1499.972168,298.864563 
	C1499.972168,315.231110 1499.949951,330.875458 1499.983643,346.519653 
	C1499.996094,352.305206 1503.076660,355.241577 1508.911743,355.210052 
	C1513.759033,355.183868 1516.872314,351.857391 1516.878784,346.569977 
	C1516.895752,332.904419 1516.871094,319.238800 1516.844604,304.596588 
M835.868103,291.380280 
	C835.417236,285.847504 832.426758,282.851715 827.200684,282.837677 
	C815.225525,282.805481 803.250244,282.807861 791.275024,282.825073 
	C786.227356,282.832336 782.858093,286.155273 782.855408,291.039276 
	C782.852905,295.592804 786.184082,298.791962 791.110352,298.882507 
	C794.214233,298.939575 797.320007,298.893127 800.817017,298.893127 
	C800.817017,314.914337 800.823120,330.344391 800.814148,345.774445 
	C800.810303,352.432495 803.299927,355.168854 809.399536,355.153900 
	C815.098938,355.139923 817.875061,351.968933 817.873962,345.478821 
	C817.872009,333.836212 817.871582,322.193604 817.870728,310.550995 
	C817.870422,306.783752 817.870728,303.016479 817.870728,298.887817 
	C821.258667,298.887817 824.057922,298.793854 826.848633,298.908539 
	C831.726624,299.109039 834.491638,296.601898 835.868103,291.380280 
M1680.986572,327.499969 
	C1680.988525,333.993378 1680.960815,340.486938 1681.001465,346.980103 
	C1681.033691,352.124878 1684.106079,355.125671 1689.348389,355.139709 
	C1699.671143,355.167297 1709.994019,355.161377 1720.316772,355.151794 
	C1726.514771,355.146027 1729.946655,352.222931 1729.878174,347.052521 
	C1729.813843,342.181122 1726.028564,339.129120 1719.998901,339.118988 
	C1712.752441,339.106842 1705.505859,339.116119 1698.028320,339.116119 
	C1698.028320,322.743866 1698.046631,307.110992 1698.018066,291.478210 
	C1698.008301,286.125488 1694.687500,282.844147 1689.465942,282.878601 
	C1684.230225,282.913147 1681.002441,286.176727 1680.993042,291.535675 
	C1680.972534,303.190430 1680.987061,314.845215 1680.986572,327.499969 
M1402.829590,306.500671 
	C1402.826294,319.831238 1402.814453,333.161774 1402.823486,346.492340 
	C1402.827515,352.425323 1405.594116,355.143219 1411.620605,355.150848 
	C1421.951782,355.163879 1432.282959,355.173920 1442.614136,355.152740 
	C1448.011353,355.141693 1451.165894,352.146271 1451.167358,347.122833 
	C1451.168579,342.312988 1447.825195,339.166473 1442.524170,339.132324 
	C1435.071289,339.084259 1427.617676,339.120178 1419.562500,339.120178 
	C1419.562500,336.821747 1419.562500,335.043121 1419.562500,333.264465 
	C1419.562622,319.433990 1419.582153,305.603485 1419.552979,291.773071 
	C1419.541748,286.385590 1416.200928,282.846802 1411.226318,282.807800 
	C1405.871460,282.765869 1402.868896,285.856384 1402.834961,291.504028 
	C1402.807007,296.169586 1402.829346,300.835388 1402.829590,306.500671 
M1458.150635,338.476135 
	C1458.142212,341.136963 1458.112305,343.797974 1458.130005,346.458618 
	C1458.165039,351.730499 1461.262207,355.153473 1466.009521,355.203033 
	C1472.050537,355.266083 1475.021729,352.504791 1475.028687,346.662994 
	C1475.050537,328.369110 1475.040039,310.075134 1475.019287,291.781219 
	C1475.012817,286.008392 1472.092041,282.785858 1466.969849,282.793518 
	C1461.100342,282.802277 1458.159912,285.878540 1458.155029,292.081055 
	C1458.143188,307.215149 1458.151123,322.349243 1458.150635,338.476135 
M1192.133667,314.500000 
	C1192.127441,325.473175 1192.060791,336.446777 1192.143555,347.419281 
	C1192.179077,352.133636 1195.876831,355.212097 1201.057251,355.161621 
	C1206.096436,355.112549 1209.172241,352.243317 1209.180176,347.337982 
	C1209.210205,328.717224 1209.193481,310.096344 1209.155884,291.475586 
	C1209.145020,286.096710 1205.869263,282.821259 1200.668335,282.822113 
	C1195.658569,282.822937 1192.149170,286.360992 1192.124634,291.553986 
	C1192.090088,298.869141 1192.127197,306.184631 1192.133667,314.500000 
M695.966370,327.499969 
	C695.969788,333.986237 695.940247,340.472748 695.986938,346.958710 
	C696.024780,352.214264 699.299011,355.198059 704.869019,355.165131 
	C709.899292,355.135345 712.987976,352.006927 712.996155,346.793457 
	C713.025146,328.332581 713.033142,309.871613 713.015259,291.410706 
	C713.010193,286.143341 709.687439,282.901428 704.420349,282.880432 
	C699.251831,282.859833 695.988281,286.174347 695.975525,291.573944 
	C695.947998,303.215912 695.966614,314.857971 695.966370,327.499969 
z"/>
<path fill="#E9322B" opacity="1.000000" stroke="none" 
	d="
M501.416138,412.827209 
	C492.105743,410.021576 482.886292,406.832764 473.442078,404.590759 
	C469.420349,403.635986 464.765137,403.961426 460.680481,404.915466 
	C447.401794,408.016907 437.092896,405.024811 429.649170,395.188385 
	C422.444366,385.667664 422.152191,373.869965 429.327545,362.084778 
	C433.630280,355.334991 439.591705,352.591553 446.311676,351.180420 
	C446.650482,351.627960 446.816101,351.749786 446.840820,351.895447 
	C446.977631,352.702850 447.132568,353.512634 447.186432,354.327820 
	C447.778198,363.279266 450.479065,371.257904 457.939056,376.893219 
	C470.031647,386.028076 487.582031,384.882050 498.474915,371.160339 
	C498.889801,372.224640 499.122437,373.242645 499.037476,374.233398 
	C498.408966,381.561646 500.633362,387.761139 505.997375,393.323456 
	C506.984131,392.131256 507.723602,391.471527 508.176819,390.653259 
	C511.733490,384.231567 519.111694,383.775146 524.630737,380.528595 
	C527.086670,379.083862 531.401855,381.139313 534.835938,380.945953 
	C541.705322,380.559204 546.104736,384.295380 549.979614,389.474976 
	C546.013306,395.796570 540.956604,400.285217 533.876404,402.175140 
	C523.261963,405.008423 514.160767,401.487701 504.989288,394.169403 
	C504.198364,399.401154 503.666260,403.425903 502.952271,407.418121 
	C502.623932,409.253998 501.939209,411.026154 501.416138,412.827209 
z"/>
<path fill="#F7A257" opacity="1.000000" stroke="none" 
	d="
M498.145630,371.101379 
	C487.582031,384.882050 470.031647,386.028076 457.939056,376.893219 
	C450.479065,371.257904 447.778198,363.279266 447.186432,354.327820 
	C447.132568,353.512634 446.977631,352.702850 446.840820,351.895447 
	C446.816101,351.749786 446.650482,351.627960 446.311676,351.180420 
	C439.591705,352.591553 433.630280,355.334991 429.561890,361.819458 
	C428.797363,348.245178 422.646942,336.694611 415.360352,325.337524 
	C417.309204,325.194855 418.912628,325.539429 420.533020,325.665527 
	C427.220734,326.185852 434.013336,327.152863 439.590912,321.976990 
	C439.577454,321.979584 439.550385,321.976715 439.903229,321.994568 
	C440.491333,322.023163 440.726624,322.033905 441.026489,322.380981 
	C450.627228,331.893738 461.584076,330.847229 473.335846,327.098328 
	C489.855988,328.074188 500.012939,336.385040 502.716309,350.807587 
	C503.222107,353.506195 503.549805,356.238251 503.861206,359.286285 
	C501.890350,363.445587 500.018005,367.273499 498.145630,371.101379 
z"/>
<path fill="#435FA7" opacity="1.000000" stroke="none" 
	d="
M625.077148,309.045349 
	C622.464050,320.685577 621.292603,332.378326 623.389160,344.615692 
	C616.129089,341.050690 609.165466,337.382538 600.721924,337.074768 
	C600.292725,337.016113 600.119873,337.002319 599.844238,336.663391 
	C595.751282,328.967896 590.526367,323.049438 581.897156,321.108063 
	C579.190735,320.499176 576.494629,319.844238 573.435791,319.155090 
	C561.349304,314.411621 554.733948,305.120575 555.168762,292.674835 
	C555.340454,287.760651 557.057495,282.900482 558.037109,278.008789 
	C558.003357,278.001801 557.987305,278.068909 558.363770,278.259338 
	C558.986877,278.314697 559.233582,278.179565 559.723572,277.839172 
	C562.928284,274.720123 565.889648,271.806366 569.227539,268.888489 
	C576.256348,264.348145 583.758545,266.058472 591.214111,266.250549 
	C593.312500,267.543121 595.213562,268.555145 597.113220,269.569885 
	C604.734436,273.640747 609.428589,279.870361 609.910339,288.560211 
	C610.287415,295.361877 611.021301,302.403839 605.934814,308.371307 
	C606.175293,308.896179 606.415710,309.421051 606.656189,309.945923 
	C612.796509,309.645721 618.936829,309.345551 625.077148,309.045349 
z"/>
<path fill="#435FA7" opacity="1.000000" stroke="none" 
	d="
M1305.475342,335.589172 
	C1301.720947,329.990265 1298.164185,324.694427 1294.607422,319.398590 
	C1294.153076,319.561523 1293.698608,319.724457 1293.244263,319.887360 
	C1293.244263,328.480103 1293.234985,337.072815 1293.247314,345.665558 
	C1293.256592,352.166321 1290.531738,355.263641 1284.776367,355.248047 
	C1279.166504,355.232880 1276.367432,351.916473 1276.374146,345.423645 
	C1276.392212,327.929871 1276.560425,310.432892 1276.258057,292.944336 
	C1276.173218,288.041382 1278.076904,284.782654 1282.070312,282.991394 
	C1286.311890,281.088837 1290.973511,283.216949 1294.024902,287.760834 
	C1300.057617,296.744385 1306.013062,305.779785 1312.008301,314.788513 
	C1312.921875,316.161224 1313.878052,317.505676 1315.350708,319.640411 
	C1315.636841,317.833466 1315.921997,316.853424 1315.927002,315.871979 
	C1315.968018,307.875031 1315.945435,299.877777 1315.965210,291.880676 
	C1315.979980,285.913788 1318.936035,282.741150 1324.426880,282.748322 
	C1329.768311,282.755310 1332.852539,286.125427 1332.859253,292.073639 
	C1332.879883,310.067261 1332.733276,328.062714 1332.969727,346.053284 
	C1333.029541,350.603058 1331.030029,353.480377 1327.363647,355.003021 
	C1323.076172,356.783630 1318.023193,354.785583 1315.483276,350.961578 
	C1312.167236,345.968964 1308.939087,340.918091 1305.475342,335.589172 
z"/>
<path fill="#435FA7" opacity="1.000000" stroke="none" 
	d="
M1846.084961,315.188599 
	C1845.887939,317.077148 1845.320312,319.053162 1846.059326,320.145325 
	C1851.365112,327.988403 1851.488037,336.248962 1847.466675,344.309937 
	C1843.512451,352.236298 1836.175049,355.168976 1827.554321,355.165039 
	C1820.228027,355.161713 1812.901611,355.191803 1805.575439,355.162964 
	C1799.988281,355.140991 1796.982422,352.210754 1796.976929,346.734833 
	C1796.958252,328.419098 1796.967041,310.103333 1796.986938,291.787598 
	C1796.993042,286.091187 1800.129883,282.873230 1805.701660,282.862061 
	C1813.360352,282.846741 1821.036621,282.566925 1828.673950,282.980499 
	C1845.134399,283.871826 1854.066528,300.216400 1846.084961,315.188599 
M1830.942383,337.581268 
	C1835.109009,332.050262 1833.440674,327.350128 1826.819946,326.694580 
	C1822.743042,326.290863 1818.593628,326.619843 1814.293945,326.619843 
	C1814.293945,330.877747 1814.293945,334.784058 1814.293945,339.558441 
	C1819.829224,339.029297 1825.032715,338.531830 1830.942383,337.581268 
M1815.729980,298.899658 
	C1814.949951,302.403076 1814.169922,305.906494 1813.235596,310.102631 
	C1818.496094,310.102631 1822.431274,310.146820 1826.364990,310.089355 
	C1829.815674,310.038971 1832.068604,308.633759 1832.092773,304.782471 
	C1832.116211,301.061523 1830.020508,299.323578 1826.615601,299.080139 
	C1823.315796,298.844177 1819.993286,298.928162 1815.729980,298.899658 
z"/>
<path fill="#435FA7" opacity="1.000000" stroke="none" 
	d="
M739.826294,322.105347 
	C739.079346,320.966064 738.524780,320.146576 737.970215,319.327087 
	C737.602661,319.333954 737.235107,319.340790 736.867554,319.347656 
	C736.867554,321.820190 736.868652,324.292694 736.867371,326.765228 
	C736.864014,333.426056 736.889587,340.087036 736.846252,346.747620 
	C736.811096,352.152588 733.629761,355.178223 728.111633,355.162079 
	C722.942627,355.146912 719.857544,352.136383 719.846008,346.878326 
	C719.805847,328.561157 719.943909,310.242462 719.733093,291.927582 
	C719.680725,287.382904 721.663513,284.214966 725.451050,283.124084 
	C729.668030,281.909607 734.042297,282.629974 736.884766,286.965363 
	C742.906494,296.149933 749.010620,305.280518 755.094788,314.424011 
	C756.073059,315.894226 757.122925,317.316833 759.138550,318.557587 
	C759.138550,309.689667 759.347961,300.814789 759.052551,291.956726 
	C758.898743,287.343964 761.340759,284.446686 764.859619,283.065338 
	C768.568054,281.609589 772.525146,282.734192 774.787659,286.512451 
	C775.646484,287.946747 775.978577,289.894165 775.986023,291.610107 
	C776.065125,309.760529 775.882629,327.913452 776.129456,346.060791 
	C776.191528,350.625427 774.316528,353.811768 770.521606,354.868622 
	C766.349792,356.030396 761.895691,355.523071 759.025269,351.140961 
	C752.735657,341.538910 746.359497,331.993591 739.826294,322.105347 
z"/>
<path fill="#435FA7" opacity="1.000000" stroke="none" 
	d="
M900.778931,353.036011 
	C899.704651,350.722565 898.248901,348.665680 898.229858,346.595612 
	C898.059937,328.127899 898.126648,309.657776 898.163452,291.188477 
	C898.173645,286.075836 901.270813,282.856781 906.369690,282.800903 
	C913.689270,282.720642 921.012878,282.715576 928.331055,282.864929 
	C938.654907,283.075653 946.852112,288.642914 949.679443,297.146545 
	C952.967773,307.036743 949.757568,317.271667 941.328857,323.781616 
	C940.939148,324.082611 940.569763,324.409760 939.710388,325.124146 
	C942.817383,331.179901 945.965637,337.328186 949.125488,343.470490 
	C951.221008,347.543732 950.310242,352.763702 947.128235,354.823181 
	C943.911865,356.904846 935.828796,354.798218 933.826477,351.120422 
	C930.491699,344.995361 926.996033,338.911011 924.297424,332.502411 
	C922.385803,327.962677 919.731995,326.951172 915.037903,328.452393 
	C915.037903,334.485687 914.799683,340.620789 915.122559,346.726227 
	C915.334290,350.730530 913.265686,353.662079 910.270142,354.522308 
	C907.544434,355.305023 904.158630,353.789093 900.778931,353.036011 
M915.021667,308.283325 
	C915.751099,309.459412 916.431519,311.607880 917.218323,311.647614 
	C921.172729,311.847137 925.175293,311.690796 929.121094,311.278046 
	C932.453125,310.929504 933.969177,308.533661 933.934021,305.336121 
	C933.896729,301.939209 932.208496,299.401794 928.711426,299.140686 
	C924.310364,298.812134 919.866150,299.061493 915.028259,299.061493 
	C915.028259,302.100098 915.028259,304.723694 915.021667,308.283325 
z"/>
<path fill="#435FA7" opacity="1.000000" stroke="none" 
	d="
M842.392151,322.999939 
	C842.391968,312.178833 842.369446,301.857635 842.399780,291.536621 
	C842.416687,285.799377 845.490234,282.766022 851.252808,282.751190 
	C861.740234,282.724243 872.227905,282.705505 882.715332,282.729797 
	C888.023254,282.742096 891.218994,285.812225 891.228394,290.775940 
	C891.238098,295.904083 888.209778,298.859558 882.830627,298.879761 
	C875.202209,298.908417 867.573669,298.887024 860.209961,298.887024 
	C859.782349,299.618164 859.506104,299.878754 859.483582,300.159729 
	C858.631714,310.756653 858.634827,310.757172 869.238770,310.761078 
	C872.235229,310.762177 875.231873,310.740540 878.228088,310.765900 
	C883.371277,310.809387 886.652283,314.058105 886.597107,319.016754 
	C886.545288,323.671936 883.266663,326.833954 878.315613,326.873810 
	C872.189148,326.923126 866.061951,326.885620 859.587952,326.885620 
	C859.587952,331.063965 859.587952,334.796478 859.587952,339.108368 
	C866.994751,339.108368 874.278625,339.091705 881.562378,339.113464 
	C887.719482,339.131866 891.256226,342.065216 891.254395,347.092682 
	C891.252441,352.455933 888.007629,355.242615 881.774231,355.240326 
	C871.453125,355.236542 861.131897,355.266266 850.810974,355.220367 
	C845.599487,355.197205 842.492065,352.136017 842.445862,346.971466 
	C842.375854,339.148071 842.404968,331.323822 842.392151,322.999939 
z"/>
<path fill="#435FA7" opacity="1.000000" stroke="none" 
	d="
M1216.098145,309.229614 
	C1216.416870,296.450226 1222.110107,287.614502 1233.804688,283.684448 
	C1244.977905,279.929626 1255.151733,282.364227 1263.509277,291.055664 
	C1267.659546,295.371826 1269.475464,300.803864 1269.598999,306.504303 
	C1269.803955,315.968292 1269.922607,325.510986 1268.952148,334.904236 
	C1267.719360,346.836365 1256.397949,355.683716 1243.569336,355.886597 
	C1230.324951,356.096069 1218.735107,347.683685 1217.126343,335.577179 
	C1215.993896,327.055664 1216.373657,318.333221 1216.098145,309.229614 
M1233.064697,309.949005 
	C1233.136719,316.768311 1232.842285,323.617401 1233.392700,330.397858 
	C1233.861572,336.174408 1237.708252,339.497803 1242.708008,339.673676 
	C1247.611328,339.846161 1252.044067,336.523895 1252.405273,330.891785 
	C1252.934692,322.632233 1252.896729,314.256836 1252.060669,306.036499 
	C1251.801514,303.488403 1248.606445,300.306702 1245.983398,299.115784 
	C1239.551636,296.195587 1234.679199,300.270111 1233.064697,309.949005 
z"/>
<path fill="#435FA7" opacity="1.000000" stroke="none" 
	d="
M1783.493652,347.470551 
	C1768.028809,362.114410 1743.676514,356.735138 1737.793457,337.568542 
	C1736.833862,334.442200 1736.518677,331.020142 1736.476929,327.727539 
	C1736.322876,315.570984 1736.376831,303.411316 1736.418213,291.253021 
	C1736.435547,286.120636 1740.084717,282.399719 1744.928833,282.379333 
	C1749.875854,282.358521 1753.558228,285.979187 1753.576416,291.110565 
	C1753.621216,303.768402 1753.522949,316.426880 1753.595459,329.084442 
	C1753.622314,333.763428 1755.238159,337.606049 1760.262451,338.999084 
	C1765.190796,340.365540 1770.039185,338.854980 1771.960571,334.838043 
	C1772.984985,332.696228 1773.320801,330.056396 1773.347656,327.634491 
	C1773.480957,315.644104 1773.396118,303.651367 1773.411621,291.659485 
	C1773.419067,285.986603 1776.795410,282.376648 1782.025391,282.379089 
	C1786.981812,282.381409 1790.169678,285.898804 1790.172485,291.403351 
	C1790.178711,304.061462 1790.082520,316.720490 1790.207764,329.377350 
	C1790.275146,336.195435 1788.280762,342.134430 1783.493652,347.470551 
z"/>
<path fill="#435FA7" opacity="1.000000" stroke="none" 
	d="
M1049.968750,298.860718 
	C1044.354492,298.860657 1039.233154,298.860657 1033.846680,298.860657 
	C1033.846680,303.019867 1033.846680,306.605469 1033.846680,310.831635 
	C1040.154907,310.831635 1046.270874,310.811249 1052.386475,310.837830 
	C1057.591797,310.860474 1060.923950,314.035278 1060.890991,318.873108 
	C1060.857910,323.734161 1057.529175,326.841309 1052.254639,326.865570 
	C1046.282715,326.893066 1040.310547,326.871918 1033.964966,326.871918 
	C1033.964966,330.931854 1033.964966,334.669739 1033.964966,339.112732 
	C1041.267944,339.112732 1048.704834,339.092499 1056.141357,339.119232 
	C1061.977051,339.140198 1065.717896,342.449341 1065.625488,347.436951 
	C1065.534546,352.350433 1062.095947,355.156128 1056.186768,355.154602 
	C1045.862549,355.151886 1035.538208,355.173065 1025.213989,355.151672 
	C1019.550720,355.139923 1016.808960,352.337555 1016.808777,346.588074 
	C1016.808167,328.271057 1016.811401,309.953979 1016.843201,291.636993 
	C1016.853638,285.632355 1019.634888,282.843689 1025.558472,282.833618 
	C1036.049194,282.815826 1046.540039,282.810486 1057.030762,282.836243 
	C1062.321655,282.849243 1065.616455,285.992371 1065.609497,290.918457 
	C1065.602417,295.975891 1062.527100,298.805328 1056.956055,298.857758 
	C1054.791382,298.878113 1052.626343,298.860901 1049.968750,298.860718 
z"/>
<path fill="#435FA7" opacity="1.000000" stroke="none" 
	d="
M1005.596375,294.809937 
	C1004.397705,301.855743 998.716248,304.037109 992.513306,301.066193 
	C988.959412,299.364014 984.615295,298.380493 980.741089,298.659210 
	C978.713257,298.805115 975.939514,302.097015 975.275391,304.465271 
	C974.317505,307.881042 977.651733,309.183350 980.509155,309.786926 
	C984.569031,310.644379 988.719055,311.078949 992.773376,311.957947 
	C1002.603210,314.089203 1008.305847,320.422974 1009.653015,330.444061 
	C1010.877014,339.548676 1006.589600,348.450531 998.137390,352.351929 
	C985.397095,358.232574 972.921753,357.349670 961.329346,349.079590 
	C957.516113,346.359192 956.583984,341.058899 959.010010,337.793518 
	C962.138489,333.582733 967.612854,332.541840 971.638672,335.765106 
	C976.336548,339.526306 981.685059,340.541504 987.107117,338.908813 
	C989.406372,338.216492 992.055115,335.414307 992.649963,333.086700 
	C993.576721,329.460358 990.469788,328.123230 987.111206,327.710602 
	C983.817810,327.305969 980.563110,326.591492 977.287781,326.034241 
	C965.420654,324.015167 958.311401,316.345795 958.098083,305.319458 
	C957.882202,294.163330 964.921082,285.348724 976.219238,282.915131 
	C985.386963,280.940460 994.032043,282.309143 1002.028320,287.416412 
	C1004.662170,289.098663 1006.171204,291.178497 1005.596375,294.809937 
z"/>
<path fill="#435FA7" opacity="1.000000" stroke="none" 
	d="
M1360.651123,341.174683 
	C1356.080200,341.256592 1356.547363,344.930969 1355.628296,347.309143 
	C1353.133545,353.765717 1351.317505,355.281433 1345.260132,355.184998 
	C1339.780151,355.097687 1336.481079,350.252197 1338.404053,345.017151 
	C1345.229126,326.437225 1352.137695,307.887665 1358.884277,289.279419 
	C1360.364258,285.197418 1362.904541,282.849426 1367.236206,282.750458 
	C1371.887329,282.644196 1374.992310,284.706818 1376.639038,289.281067 
	C1383.288086,307.749786 1390.092041,326.162750 1396.830688,344.599274 
	C1398.213135,348.381317 1396.582397,353.254547 1393.439087,354.830963 
	C1389.644775,356.733856 1381.922485,354.857849 1381.312622,350.935669 
	C1379.199585,337.344818 1369.077026,341.747040 1360.651123,341.174683 
M1363.963623,324.616852 
	C1366.483398,324.797424 1369.003174,324.977966 1372.135864,325.202454 
	C1370.528687,320.855133 1369.227539,317.335541 1367.615601,312.975494 
	C1366.139771,317.309448 1365.019653,320.598602 1363.963623,324.616852 
z"/>
<path fill="#435FA7" opacity="1.000000" stroke="none" 
	d="
M1086.298706,285.186096 
	C1103.359863,278.108276 1119.569824,284.411652 1124.798340,299.858429 
	C1126.257080,304.168213 1124.457642,309.226227 1120.905273,310.801300 
	C1117.370239,312.368683 1111.229370,310.209015 1109.126709,306.588806 
	C1108.462036,305.444366 1108.117310,304.111053 1107.431641,302.982391 
	C1105.212646,299.330292 1101.918457,297.735291 1097.702026,298.496460 
	C1093.287476,299.293427 1090.235962,301.974945 1090.045532,306.477325 
	C1089.702148,314.600952 1089.739502,322.753784 1089.977905,330.883850 
	C1090.116333,335.608582 1092.942749,338.607086 1097.668823,339.344177 
	C1102.482910,340.095032 1105.971191,338.149872 1108.355469,333.811218 
	C1109.508179,331.713531 1110.945312,329.025543 1112.890137,328.291840 
	C1115.537354,327.293121 1119.406250,326.831451 1121.635132,328.100250 
	C1124.503540,329.732971 1126.817139,332.665649 1125.191650,337.287933 
	C1120.847778,349.640350 1109.681152,357.170166 1096.571655,355.842072 
	C1083.546875,354.522614 1074.072021,345.511230 1072.945801,332.257568 
	C1072.215942,323.666809 1072.431396,314.957733 1072.777344,306.323853 
	C1073.151489,296.987793 1077.717163,289.922485 1086.298706,285.186096 
z"/>
<path fill="#435FA7" opacity="1.000000" stroke="none" 
	d="
M1621.625000,302.702148 
	C1624.190796,290.326294 1634.922852,282.037231 1647.878540,282.125061 
	C1660.960693,282.213745 1672.056152,290.578491 1673.675781,302.609344 
	C1674.012817,305.114166 1671.238525,309.156799 1668.778931,310.662811 
	C1664.861572,313.061371 1659.185425,309.932098 1657.028809,305.310730 
	C1654.134399,299.108551 1649.921997,297.005463 1644.342407,298.966034 
	C1640.210938,300.417755 1638.240356,303.584991 1638.123413,307.704559 
	C1637.915771,315.021881 1637.834473,322.356384 1638.100464,329.669159 
	C1638.310547,335.444458 1640.955078,338.378082 1645.765747,339.242004 
	C1650.960083,340.174774 1654.421021,338.278625 1656.949829,333.114349 
	C1660.707397,325.440674 1668.410522,324.362274 1672.846680,331.076630 
	C1673.772949,332.478607 1674.010132,334.887207 1673.558350,336.560059 
	C1670.152710,349.170593 1658.857788,356.876373 1645.651367,355.875763 
	C1632.723022,354.896179 1622.402588,345.835236 1621.345093,332.983826 
	C1620.531250,323.094604 1621.383057,313.068329 1621.625000,302.702148 
z"/>
<path fill="#435FA7" opacity="1.000000" stroke="none" 
	d="
M1571.172119,354.196411 
	C1562.135986,356.869415 1557.332275,353.803284 1558.306396,345.048248 
	C1559.943359,330.336060 1555.220337,317.675903 1547.994019,305.447571 
	C1545.967896,302.019012 1544.299316,298.377045 1542.508057,294.812195 
	C1540.340576,290.498444 1541.429688,285.064148 1544.799438,283.168793 
	C1548.380249,281.154663 1555.242188,283.265900 1557.409912,287.340424 
	C1560.506470,293.161377 1563.335571,299.124664 1566.669312,305.809998 
	C1569.791626,299.440948 1572.656860,293.855164 1575.282959,288.159180 
	C1577.461182,283.434509 1581.305908,282.718201 1585.946167,282.680786 
	C1590.377930,282.645081 1590.618164,286.408386 1592.113892,288.853149 
	C1592.711792,289.830475 1592.006714,291.951721 1591.355835,293.290070 
	C1587.067261,302.107330 1582.350830,310.728210 1578.369873,319.678192 
	C1576.552734,323.763214 1575.691162,328.401520 1575.131836,332.880768 
	C1574.599854,337.141785 1574.806641,341.537537 1575.100586,345.845917 
	C1575.339722,349.349457 1574.319580,351.983765 1571.172119,354.196411 
z"/>
<path fill="#435FA7" opacity="1.000000" stroke="none" 
	d="
M1167.611084,310.013062 
	C1167.597168,322.497589 1167.603760,334.483307 1167.560547,346.468842 
	C1167.540283,352.127625 1164.543701,355.231873 1159.209351,355.256683 
	C1153.808716,355.281799 1150.757324,352.186890 1150.751709,346.592041 
	C1150.736084,330.956665 1150.746338,315.321259 1150.746338,298.872375 
	C1147.512207,298.872375 1144.598877,298.885376 1141.685791,298.869629 
	C1136.002808,298.838928 1132.716064,295.862488 1132.748901,290.797302 
	C1132.782471,285.623169 1135.925659,282.778107 1141.795166,282.761292 
	C1153.614380,282.727478 1165.434082,282.724976 1177.253296,282.767151 
	C1182.117432,282.784515 1185.537231,286.072723 1185.572998,290.588379 
	C1185.614868,295.863922 1182.723999,298.759888 1177.261963,298.845428 
	C1174.292847,298.891937 1171.322266,298.853729 1167.611328,298.853729 
	C1167.611328,302.668121 1167.611328,306.091125 1167.611084,310.013062 
z"/>
<path fill="#435FA7" opacity="1.000000" stroke="none" 
	d="
M1516.853882,305.084900 
	C1516.871094,319.238800 1516.895752,332.904419 1516.878784,346.569977 
	C1516.872314,351.857391 1513.759033,355.183868 1508.911743,355.210052 
	C1503.076660,355.241577 1499.996094,352.305206 1499.983643,346.519653 
	C1499.949951,330.875458 1499.972168,315.231110 1499.972168,298.864563 
	C1496.632080,298.864563 1493.538330,298.886963 1490.445068,298.859589 
	C1485.037598,298.811798 1481.948853,295.866943 1481.957764,290.807739 
	C1481.966064,285.964233 1485.274170,282.854309 1490.551025,282.841400 
	C1502.550171,282.812042 1514.549316,282.800690 1526.548340,282.834473 
	C1531.622559,282.848755 1534.957642,286.245117 1534.880371,291.157166 
	C1534.809570,295.653687 1531.407959,298.772675 1526.424194,298.847565 
	C1523.456543,298.892151 1520.487793,298.855743 1516.844604,298.855743 
	C1516.844604,301.063751 1516.844604,302.830170 1516.853882,305.084900 
z"/>
<path fill="#435FA7" opacity="1.000000" stroke="none" 
	d="
M835.871826,291.779938 
	C834.491638,296.601898 831.726624,299.109039 826.848633,298.908539 
	C824.057922,298.793854 821.258667,298.887817 817.870728,298.887817 
	C817.870728,303.016479 817.870422,306.783752 817.870728,310.550995 
	C817.871582,322.193604 817.872009,333.836212 817.873962,345.478821 
	C817.875061,351.968933 815.098938,355.139923 809.399536,355.153900 
	C803.299927,355.168854 800.810303,352.432495 800.814148,345.774445 
	C800.823120,330.344391 800.817017,314.914337 800.817017,298.893127 
	C797.320007,298.893127 794.214233,298.939575 791.110352,298.882507 
	C786.184082,298.791962 782.852905,295.592804 782.855408,291.039276 
	C782.858093,286.155273 786.227356,282.832336 791.275024,282.825073 
	C803.250244,282.807861 815.225525,282.805481 827.200684,282.837677 
	C832.426758,282.851715 835.417236,285.847504 835.871826,291.779938 
z"/>
<path fill="#303F94" opacity="1.000000" stroke="none" 
	d="
M625.300110,308.788910 
	C618.936829,309.345551 612.796509,309.645721 606.656189,309.945923 
	C606.415710,309.421051 606.175293,308.896179 605.934814,308.371307 
	C611.021301,302.403839 610.287415,295.361877 609.910339,288.560211 
	C609.428589,279.870361 604.734436,273.640747 597.113220,269.569885 
	C595.213562,268.555145 593.312500,267.543121 591.404053,265.980591 
	C593.219543,263.785370 594.791016,261.610840 596.916138,260.597656 
	C602.203247,258.076996 607.742676,256.085449 613.180786,253.881470 
	C615.781494,254.390305 618.436523,254.710556 620.973572,255.440643 
	C631.851257,258.570892 638.795959,265.701050 641.016113,276.776123 
	C643.318970,288.264008 639.408630,297.694641 630.141602,304.883728 
	C628.591492,306.086273 627.062073,307.315521 625.300110,308.788910 
z"/>
<path fill="#738B3F" opacity="1.000000" stroke="none" 
	d="
M439.604370,321.974426 
	C434.013336,327.152863 427.220734,326.185852 420.533020,325.665527 
	C418.912628,325.539429 417.309204,325.194855 415.249329,325.005676 
	C412.409363,323.040741 409.940521,321.105042 407.640625,318.985962 
	C398.953583,310.981689 396.194214,301.025238 399.680115,289.952301 
	C403.231567,278.671112 411.335693,272.098633 423.297699,270.676239 
	C424.283478,270.559052 425.255493,270.325928 427.010986,270.093384 
	C432.523438,271.855774 437.287720,273.600677 441.981262,275.518707 
	C444.165283,276.411224 444.633301,277.784973 442.663391,279.631561 
	C440.551270,281.611420 438.534607,283.708679 436.620911,285.882050 
	C427.498260,296.242615 430.158997,312.696381 439.597656,321.711609 
	C439.599487,321.799225 439.604370,321.974426 439.604370,321.974426 
z"/>
<path fill="#58364E" opacity="1.000000" stroke="none" 
	d="
M600.978271,337.119659 
	C609.165466,337.382538 616.129089,341.050690 623.334961,345.029083 
	C625.466309,349.283844 627.692932,353.409698 628.933716,357.813324 
	C631.864929,368.216156 629.425903,377.500122 621.688110,385.129730 
	C614.069946,392.641418 604.889221,394.541809 594.640686,392.061188 
	C592.728943,391.598450 590.798035,391.214966 588.436096,390.462708 
	C584.478149,385.318359 578.247803,382.482666 576.948608,375.709381 
	C590.038696,373.116974 599.093445,366.378448 601.498901,353.315338 
	C602.454773,348.124725 601.217224,342.530273 600.978271,337.119659 
z"/>
<path fill="#BA2C33" opacity="1.000000" stroke="none" 
	d="
M501.567688,413.132446 
	C501.939209,411.026154 502.623932,409.253998 502.952271,407.418121 
	C503.666260,403.425903 504.198364,399.401154 504.989288,394.169403 
	C514.160767,401.487701 523.261963,405.008423 533.876404,402.175140 
	C540.956604,400.285217 546.013306,395.796570 550.304077,389.427551 
	C551.111023,389.011810 551.546875,388.984467 552.021973,389.320923 
	C556.290649,396.987427 558.729431,404.765167 558.324158,413.297241 
	C558.324158,413.297241 558.110718,413.153748 557.907104,413.251648 
	C557.436340,414.139465 557.169189,414.929382 556.901978,415.719299 
	C552.667236,428.080566 543.190674,435.515442 531.229858,435.860504 
	C518.681091,436.222504 508.757477,429.315704 503.717926,416.789734 
	C503.238190,415.597382 502.394165,414.551544 501.567688,413.132446 
z"/>
<path fill="#0C6D70" opacity="1.000000" stroke="none" 
	d="
M532.042542,205.106445 
	C534.384949,203.262283 536.688110,201.365616 539.076660,199.583282 
	C548.350220,192.663315 558.563904,191.661911 568.700562,196.631104 
	C578.725403,201.545456 583.740601,210.287872 584.091187,221.610718 
	C584.179077,224.448944 581.114563,227.623444 584.569946,230.541763 
	C582.672302,232.683746 581.017090,234.385162 579.450317,236.164474 
	C577.194580,238.726120 575.003235,241.344406 572.200439,244.621277 
	C565.924927,229.636368 555.508606,223.482590 540.888428,225.137207 
	C537.119446,225.563751 533.538025,227.646713 529.604065,228.655518 
	C529.209106,226.869324 528.793945,225.354675 529.001343,223.930695 
	C529.917297,217.641693 531.012329,211.378784 532.042542,205.106445 
z"/>
<path fill="#049850" opacity="1.000000" stroke="none" 
	d="
M445.147736,234.028381 
	C443.896912,220.731857 447.911285,209.986465 460.413788,203.724121 
	C471.109985,198.366516 483.090485,200.309219 491.918121,208.412079 
	C493.004028,209.408844 494.183777,210.303360 495.632812,211.799377 
	C496.693085,214.348373 497.639496,216.294342 498.144440,218.348801 
	C499.041809,222.000046 499.671722,225.717010 500.496307,229.818207 
	C477.646423,226.834000 463.635193,236.275604 462.569550,254.000931 
	C453.019775,250.326248 447.773987,243.297775 445.147736,234.028381 
z"/>
<path fill="#435FA7" opacity="1.000000" stroke="none" 
	d="
M1680.986816,327.000000 
	C1680.987061,314.845215 1680.972534,303.190430 1680.993042,291.535675 
	C1681.002441,286.176727 1684.230225,282.913147 1689.465942,282.878601 
	C1694.687500,282.844147 1698.008301,286.125488 1698.018066,291.478210 
	C1698.046631,307.110992 1698.028320,322.743866 1698.028320,339.116119 
	C1705.505859,339.116119 1712.752441,339.106842 1719.998901,339.118988 
	C1726.028564,339.129120 1729.813843,342.181122 1729.878174,347.052521 
	C1729.946655,352.222931 1726.514771,355.146027 1720.316772,355.151794 
	C1709.994019,355.161377 1699.671143,355.167297 1689.348389,355.139709 
	C1684.106079,355.125671 1681.033691,352.124878 1681.001465,346.980103 
	C1680.960815,340.486938 1680.988525,333.993378 1680.986816,327.000000 
z"/>
<path fill="#435FA7" opacity="1.000000" stroke="none" 
	d="
M1402.829590,306.000885 
	C1402.829346,300.835388 1402.807007,296.169586 1402.834961,291.504028 
	C1402.868896,285.856384 1405.871460,282.765869 1411.226318,282.807800 
	C1416.200928,282.846802 1419.541748,286.385590 1419.552979,291.773071 
	C1419.582153,305.603485 1419.562622,319.433990 1419.562500,333.264465 
	C1419.562500,335.043121 1419.562500,336.821747 1419.562500,339.120178 
	C1427.617676,339.120178 1435.071289,339.084259 1442.524170,339.132324 
	C1447.825195,339.166473 1451.168579,342.312988 1451.167358,347.122833 
	C1451.165894,352.146271 1448.011353,355.141693 1442.614136,355.152740 
	C1432.282959,355.173920 1421.951782,355.163879 1411.620605,355.150848 
	C1405.594116,355.143219 1402.827515,352.425323 1402.823486,346.492340 
	C1402.814453,333.161774 1402.826294,319.831238 1402.829590,306.000885 
z"/>
<path fill="#6AAF53" opacity="1.000000" stroke="none" 
	d="
M445.006836,234.381775 
	C447.773987,243.297775 453.019775,250.326248 462.580261,254.254456 
	C462.957062,254.700592 462.967133,254.869583 462.971069,255.476196 
	C463.232635,264.503998 464.530334,272.560394 473.558380,276.710754 
	C473.830322,276.835754 473.804413,277.608612 473.540802,278.059082 
	C464.250031,273.834839 455.328003,272.484894 446.163116,277.581787 
	C457.804291,297.502869 456.278778,309.897034 440.961914,322.044678 
	C440.726624,322.033905 440.491333,322.023163 439.905701,321.930969 
	C439.555328,321.849487 439.595825,321.624023 439.595825,321.624023 
	C430.158997,312.696381 427.498260,296.242615 436.620911,285.882050 
	C438.534607,283.708679 440.551270,281.611420 442.663391,279.631561 
	C444.633301,277.784973 444.165283,276.411224 441.981262,275.518707 
	C437.287720,273.600677 432.523438,271.855774 427.401978,270.021179 
	C433.665741,261.576965 439.694092,252.789398 442.856415,242.371994 
	C443.620453,239.854996 444.200989,237.282272 445.006836,234.381775 
z"/>
<path fill="#12B280" opacity="1.000000" stroke="none" 
	d="
M462.977173,255.038559 
	C462.967133,254.869583 462.957062,254.700592 462.936279,254.278076 
	C463.635193,236.275604 477.646423,226.834000 500.496307,229.818207 
	C499.671722,225.717010 499.041809,222.000046 498.144440,218.348801 
	C497.639496,216.294342 496.693085,214.348373 495.931580,212.003967 
	C508.111694,211.638382 520.038330,210.187668 531.661255,205.084473 
	C531.012329,211.378784 529.917297,217.641693 529.001343,223.930695 
	C528.793945,225.354675 529.209106,226.869324 529.627319,228.932739 
	C529.933044,229.892746 529.949158,230.262222 529.604004,230.720642 
	C527.830078,231.845978 525.908875,232.584778 525.096680,233.972565 
	C522.233215,238.865494 519.750061,243.980972 516.834534,248.798584 
	C513.672424,240.848587 509.600861,234.281128 501.812653,231.897171 
	C499.186768,237.058075 497.596985,241.856766 494.670532,245.614471 
	C486.493500,256.114288 475.323456,257.867920 462.977173,255.038559 
z"/>
<path fill="#BA446A" opacity="1.000000" stroke="none" 
	d="
M558.629395,413.179565 
	C558.729431,404.765167 556.290649,396.987427 552.024170,389.073303 
	C551.987122,388.461945 552.004883,387.966064 552.165039,387.895142 
	C552.390564,387.730011 552.529419,387.575623 552.509460,387.551178 
	C552.373840,387.385315 552.204651,387.246887 552.075745,386.699463 
	C554.560791,379.634491 554.545959,372.859222 553.349976,366.054810 
	C558.082397,370.791290 563.398254,373.731934 569.780334,374.825745 
	C574.479797,375.631195 575.501587,374.667206 574.503845,369.943695 
	C572.462463,360.279144 576.892273,348.685211 585.316467,343.553009 
	C589.845459,340.793884 595.048279,339.140717 599.947021,336.988525 
	C600.119873,337.002319 600.292725,337.016113 600.721924,337.074768 
	C601.217224,342.530273 602.454773,348.124725 601.498901,353.315338 
	C599.093445,366.378448 590.038696,373.116974 576.948608,375.709381 
	C578.247803,382.482666 584.478149,385.318359 588.024902,390.467896 
	C576.992615,396.451782 566.802551,403.237732 558.629395,413.179565 
z"/>
<path fill="#156FB3" opacity="1.000000" stroke="none" 
	d="
M529.965332,230.631714 
	C529.949158,230.262222 529.933044,229.892746 529.893677,229.246017 
	C533.538025,227.646713 537.119446,225.563751 540.888428,225.137207 
	C555.508606,223.482590 565.924927,229.636368 572.200439,244.621277 
	C575.003235,241.344406 577.194580,238.726120 579.450317,236.164474 
	C581.017090,234.385162 582.672302,232.683746 584.649536,230.902557 
	C592.926758,239.996613 601.697876,248.080048 612.968567,253.611145 
	C607.742676,256.085449 602.203247,258.076996 596.916138,260.597656 
	C594.791016,261.610840 593.219543,263.785370 591.206116,265.701233 
	C583.758545,266.058472 576.256348,264.348145 569.258545,268.518799 
	C572.213806,260.807068 575.102661,253.424988 571.462341,245.131546 
	C553.197449,254.547653 535.564575,246.146484 529.965332,230.631714 
z"/>
<path fill="#435FA7" opacity="1.000000" stroke="none" 
	d="
M1458.150879,337.979736 
	C1458.151123,322.349243 1458.143188,307.215149 1458.155029,292.081055 
	C1458.159912,285.878540 1461.100342,282.802277 1466.969849,282.793518 
	C1472.092041,282.785858 1475.012817,286.008392 1475.019287,291.781219 
	C1475.040039,310.075134 1475.050537,328.369110 1475.028687,346.662994 
	C1475.021729,352.504791 1472.050537,355.266083 1466.009521,355.203033 
	C1461.262207,355.153473 1458.165039,351.730499 1458.130005,346.458618 
	C1458.112305,343.797974 1458.142212,341.136963 1458.150879,337.979736 
z"/>
<path fill="#435FA7" opacity="1.000000" stroke="none" 
	d="
M1192.133789,314.000000 
	C1192.127197,306.184631 1192.090088,298.869141 1192.124634,291.553986 
	C1192.149170,286.360992 1195.658569,282.822937 1200.668335,282.822113 
	C1205.869263,282.821259 1209.145020,286.096710 1209.155884,291.475586 
	C1209.193481,310.096344 1209.210205,328.717224 1209.180176,347.337982 
	C1209.172241,352.243317 1206.096436,355.112549 1201.057251,355.161621 
	C1195.876831,355.212097 1192.179077,352.133636 1192.143555,347.419281 
	C1192.060791,336.446777 1192.127441,325.473175 1192.133789,314.000000 
z"/>
<path fill="#435FA7" opacity="1.000000" stroke="none" 
	d="
M695.966309,327.000000 
	C695.966614,314.857971 695.947998,303.215912 695.975525,291.573944 
	C695.988281,286.174347 699.251831,282.859833 704.420349,282.880432 
	C709.687439,282.901428 713.010193,286.143341 713.015259,291.410706 
	C713.033142,309.871613 713.025146,328.332581 712.996155,346.793457 
	C712.987976,352.006927 709.899292,355.135345 704.869019,355.165131 
	C699.299011,355.198059 696.024780,352.214264 695.986938,346.958710 
	C695.940247,340.472748 695.969788,333.986237 695.966309,327.000000 
z"/>
<path fill="#BA446A" opacity="1.000000" stroke="none" 
	d="
M557.147461,415.547607 
	C557.169189,414.929382 557.436340,414.139465 558.027527,413.296844 
	C558.031982,413.954712 557.712524,414.665314 557.147461,415.547607 
z"/>
<path fill="#ED5A45" opacity="1.000000" stroke="none" 
	d="
M553.011902,366.016022 
	C554.545959,372.859222 554.560791,379.634491 552.061890,386.915344 
	C552.018677,387.531311 552.004883,387.966064 552.004883,387.966064 
	C552.004883,387.966064 551.987122,388.461945 551.984985,388.709534 
	C551.546875,388.984467 551.111023,389.011810 550.350708,389.086578 
	C546.104736,384.295380 541.705322,380.559204 534.835938,380.945953 
	C531.401855,381.139313 527.086670,379.083862 524.630737,380.528595 
	C519.111694,383.775146 511.733490,384.231567 508.176819,390.653259 
	C507.723602,391.471527 506.984131,392.131256 505.997375,393.323456 
	C500.633362,387.761139 498.408966,381.561646 499.037476,374.233398 
	C499.122437,373.242645 498.889801,372.224640 498.474915,371.160339 
	C500.018005,367.273499 501.890350,363.445587 504.017090,358.989929 
	C509.107330,352.532684 515.078064,348.873749 522.732300,347.745636 
	C532.861389,346.252716 540.757751,350.379211 548.036560,357.168671 
	C549.772339,360.349945 551.392151,363.182983 553.011902,366.016022 
z"/>
<path fill="#FFFFFF" opacity="1.000000" stroke="none" 
	d="
M547.920593,356.820404 
	C540.757751,350.379211 532.861389,346.252716 522.732300,347.745636 
	C515.078064,348.873749 509.107330,352.532684 504.115540,358.658508 
	C503.549805,356.238251 503.222107,353.506195 502.716309,350.807587 
	C500.012939,336.385040 489.855988,328.074188 473.478699,326.774750 
	C473.899200,325.795990 474.538055,325.017242 475.314331,324.415894 
	C485.444092,316.568909 489.031799,305.970825 485.311584,293.823242 
	C484.141357,290.002106 482.247955,286.402466 481.119324,282.857544 
	C497.052917,287.748871 513.021362,278.675751 516.077026,266.074829 
	C516.366760,264.879822 517.424011,263.870941 518.423828,262.958923 
	C522.762695,270.426727 528.242065,276.124756 536.254150,279.020691 
	C543.663147,281.698639 550.883667,280.197815 558.070923,278.015747 
	C557.057495,282.900482 555.340454,287.760651 555.168762,292.674835 
	C554.733948,305.120575 561.349304,314.411621 573.156921,319.376984 
	C552.794678,322.900391 543.289429,336.855194 547.920593,356.820404 
z"/>
<path fill="#FBCD53" opacity="1.000000" stroke="none" 
	d="
M480.685547,282.701447 
	C482.247955,286.402466 484.141357,290.002106 485.311584,293.823242 
	C489.031799,305.970825 485.444092,316.568909 475.314331,324.415894 
	C474.538055,325.017242 473.899200,325.795990 473.053619,326.815857 
	C461.584076,330.847229 450.627228,331.893738 441.026489,322.380981 
	C456.278778,309.897034 457.804291,297.502869 446.163116,277.581787 
	C455.328003,272.484894 464.250031,273.834839 473.705658,278.132812 
	C474.247101,278.226807 474.606567,278.242188 474.738953,278.526978 
	C475.553650,279.215637 476.235962,279.619568 476.929932,280.047180 
	C476.941620,280.070831 476.993591,280.079926 477.121704,280.334534 
	C477.766754,280.786194 478.283661,280.983246 478.826660,281.197296 
	C478.852783,281.214325 478.909515,281.240204 479.046631,281.448578 
	C479.639587,281.800385 480.095459,281.943817 480.594482,282.238708 
	C480.637665,282.390137 480.685547,282.701447 480.685547,282.701447 
z"/>
<path fill="#FBCD53" opacity="1.000000" stroke="none" 
	d="
M439.597656,321.711609 
	C439.595825,321.624023 439.555328,321.849487 439.552856,321.913086 
	C439.550385,321.976715 439.577454,321.979584 439.590912,321.976990 
	C439.604370,321.974426 439.599487,321.799225 439.597656,321.711609 
z"/>
<path fill="#32BFEB" opacity="1.000000" stroke="none" 
	d="
M558.037109,278.008789 
	C550.883667,280.197815 543.663147,281.698639 536.254150,279.020691 
	C528.242065,276.124756 522.762695,270.426727 518.421265,262.630737 
	C517.787476,257.750214 517.455078,253.381119 517.122681,249.012039 
	C519.750061,243.980972 522.233215,238.865494 525.096680,233.972565 
	C525.908875,232.584778 527.830078,231.845978 529.604004,230.720642 
	C535.564575,246.146484 553.197449,254.547653 571.462341,245.131546 
	C575.102661,253.424988 572.213806,260.807068 568.882019,268.522919 
	C565.889648,271.806366 562.928284,274.720123 559.540222,277.646851 
	C558.738098,277.796204 558.362732,277.932556 557.987305,278.068909 
	C557.987305,278.068909 558.003357,278.001801 558.037109,278.008789 
z"/>
<path fill="#9D5CA0" opacity="1.000000" stroke="none" 
	d="
M548.036560,357.168671 
	C543.289429,336.855194 552.794678,322.900391 573.514954,319.432312 
	C576.494629,319.844238 579.190735,320.499176 581.897156,321.108063 
	C590.526367,323.049438 595.751282,328.967896 599.844238,336.663391 
	C595.048279,339.140717 589.845459,340.793884 585.316467,343.553009 
	C576.892273,348.685211 572.462463,360.279144 574.503845,369.943695 
	C575.501587,374.667206 574.479797,375.631195 569.780334,374.825745 
	C563.398254,373.731934 558.082397,370.791290 553.349976,366.054810 
	C551.392151,363.182983 549.772339,360.349945 548.036560,357.168671 
z"/>
<path fill="#FFFFFF" opacity="1.000000" stroke="none" 
	d="
M558.363770,278.259338 
	C558.362732,277.932556 558.738098,277.796204 559.296875,277.852173 
	C559.233582,278.179565 558.986877,278.314697 558.363770,278.259338 
z"/>
<path fill="#FFFFFF" opacity="1.000000" stroke="none" 
	d="
M1830.589355,337.807831 
	C1825.032715,338.531830 1819.829224,339.029297 1814.293945,339.558441 
	C1814.293945,334.784058 1814.293945,330.877747 1814.293945,326.619843 
	C1818.593628,326.619843 1822.743042,326.290863 1826.819946,326.694580 
	C1833.440674,327.350128 1835.109009,332.050262 1830.589355,337.807831 
z"/>
<path fill="#FFFFFF" opacity="1.000000" stroke="none" 
	d="
M1816.205322,298.885620 
	C1819.993286,298.928162 1823.315796,298.844177 1826.615601,299.080139 
	C1830.020508,299.323578 1832.116211,301.061523 1832.092773,304.782471 
	C1832.068604,308.633759 1829.815674,310.038971 1826.364990,310.089355 
	C1822.431274,310.146820 1818.496094,310.102631 1813.235596,310.102631 
	C1814.169922,305.906494 1814.949951,302.403076 1816.205322,298.885620 
z"/>
<path fill="#FFFFFF" opacity="1.000000" stroke="none" 
	d="
M915.024963,307.815308 
	C915.028259,304.723694 915.028259,302.100098 915.028259,299.061493 
	C919.866150,299.061493 924.310364,298.812134 928.711426,299.140686 
	C932.208496,299.401794 933.896729,301.939209 933.934021,305.336121 
	C933.969177,308.533661 932.453125,310.929504 929.121094,311.278046 
	C925.175293,311.690796 921.172729,311.847137 917.218323,311.647614 
	C916.431519,311.607880 915.751099,309.459412 915.024963,307.815308 
z"/>
<path fill="#FFFFFF" opacity="1.000000" stroke="none" 
	d="
M1233.099854,309.503571 
	C1234.679199,300.270111 1239.551636,296.195587 1245.983398,299.115784 
	C1248.606445,300.306702 1251.801514,303.488403 1252.060669,306.036499 
	C1252.896729,314.256836 1252.934692,322.632233 1252.405273,330.891785 
	C1252.044067,336.523895 1247.611328,339.846161 1242.708008,339.673676 
	C1237.708252,339.497803 1233.861572,336.174408 1233.392700,330.397858 
	C1232.842285,323.617401 1233.136719,316.768311 1233.099854,309.503571 
z"/>
<path fill="#FFFFFF" opacity="1.000000" stroke="none" 
	d="
M1363.931641,324.252319 
	C1365.019653,320.598602 1366.139771,317.309448 1367.615601,312.975494 
	C1369.227539,317.335541 1370.528687,320.855133 1372.135864,325.202454 
	C1369.003174,324.977966 1366.483398,324.797424 1363.931641,324.252319 
z"/>
<path fill="#59BC86" opacity="1.000000" stroke="none" 
	d="
M516.834534,248.798584 
	C517.455078,253.381119 517.787476,257.750214 518.122437,262.447449 
	C517.424011,263.870941 516.366760,264.879822 516.077026,266.074829 
	C513.021362,278.675751 497.052917,287.748871 481.119324,282.857544 
	C480.685547,282.701447 480.637665,282.390137 480.570312,281.963318 
	C479.971832,281.437775 479.440674,281.338989 478.909515,281.240204 
	C478.909515,281.240204 478.852783,281.214325 478.743896,280.907715 
	C478.087860,280.427338 477.540710,280.253632 476.993591,280.079926 
	C476.993591,280.079926 476.941620,280.070831 476.906494,279.696045 
	C476.116425,278.961548 475.361511,278.601868 474.606567,278.242188 
	C474.606567,278.242188 474.247101,278.226807 474.082245,278.153107 
	C473.804413,277.608612 473.830322,276.835754 473.558380,276.710754 
	C464.530334,272.560394 463.232635,264.503998 462.971069,255.476196 
	C475.323456,257.867920 486.493500,256.114288 494.670532,245.614471 
	C497.596985,241.856766 499.186768,237.058075 501.812653,231.897171 
	C509.600861,234.281128 513.672424,240.848587 516.834534,248.798584 
z"/>
<path fill="#BA2C33" opacity="1.000000" stroke="none" 
	d="
M552.165039,387.895142 
	C552.004883,387.966064 552.018677,387.531311 552.032471,387.315430 
	C552.204651,387.246887 552.373840,387.385315 552.509460,387.551178 
	C552.529419,387.575623 552.390564,387.730011 552.165039,387.895142 
z"/>
<path fill="#6AAF53" opacity="1.000000" stroke="none" 
	d="
M474.738953,278.526978 
	C475.361511,278.601868 476.116425,278.961548 476.894806,279.672363 
	C476.235962,279.619568 475.553650,279.215637 474.738953,278.526978 
z"/>
<path fill="#6AAF53" opacity="1.000000" stroke="none" 
	d="
M479.046631,281.448578 
	C479.440674,281.338989 479.971832,281.437775 480.527161,281.811890 
	C480.095459,281.943817 479.639587,281.800385 479.046631,281.448578 
z"/>
<path fill="#6AAF53" opacity="1.000000" stroke="none" 
	d="
M477.121704,280.334534 
	C477.540710,280.253632 478.087860,280.427338 478.717773,280.890686 
	C478.283661,280.983246 477.766754,280.786194 477.121704,280.334534 
z"/>
</svg>